<?xml version="1.0" encoding="UTF-8" standalone="no"?>
<svg
   xmlns:dc="http://purl.org/dc/elements/1.1/"
   xmlns:cc="http://creativecommons.org/ns#"
   xmlns:rdf="http://www.w3.org/1999/02/22-rdf-syntax-ns#"
   xmlns:svg="http://www.w3.org/2000/svg"
   xmlns="http://www.w3.org/2000/svg"
   xmlns:sodipodi="http://sodipodi.sourceforge.net/DTD/sodipodi-0.dtd"
   xmlns:inkscape="http://www.inkscape.org/namespaces/inkscape"
   width="15.634605mm"
   height="20.645782mm"
   viewBox="0 0 15.634605 20.645782"
   version="1.1"
   id="svg8"
   inkscape:version="1.0.1 (3bc2e813f5, 2020-09-07)"
   sodipodi:docname="pin.svg">
  <defs
     id="defs2" />
  <sodipodi:namedview
     id="base"
     pagecolor="#ffffff"
     bordercolor="#666666"
     borderopacity="1.0"
     inkscape:pageopacity="0.0"
     inkscape:pageshadow="2"
     inkscape:zoom="0.98994949"
     inkscape:cx="183.23538"
     inkscape:cy="148.94883"
     inkscape:document-units="mm"
     inkscape:current-layer="layer1"
     inkscape:document-rotation="0"
     showgrid="false"
     fit-margin-top="0.1"
     fit-margin-left="0.1"
     fit-margin-bottom="0.1"
     fit-margin-right="0.1"
     inkscape:window-width="1600"
     inkscape:window-height="837"
     inkscape:window-x="1912"
     inkscape:window-y="99"
     inkscape:window-maximized="1" />
  <metadata
     id="metadata5">
    <rdf:RDF>
      <cc:Work
         rdf:about="">
        <dc:format>image/svg+xml</dc:format>
        <dc:type
           rdf:resource="http://purl.org/dc/dcmitype/StillImage" />
        <dc:title />
      </cc:Work>
    </rdf:RDF>
  </metadata>
  <g
     inkscape:label="Layer 1"
     inkscape:groupmode="layer"
     id="layer1"
     transform="translate(-57.352307,-86.078717)">
    <path
       id="path833"
       style="fill:#c9bc9c;fill-opacity:1;stroke:none;stroke-width:1.05236;stroke-linecap:round;stroke-linejoin:round"
       d="m 65.169609,86.178717 c -4.262149,0 -7.717303,3.455154 -7.717302,7.717302 1e-6,4.262147 4.307064,12.728481 7.717302,12.728481 3.20979,0 7.717303,-8.466331 7.717303,-12.728481 0,-4.262149 -3.455154,-7.717303 -7.717303,-7.717302 z m 0,5.213016 a 2.9410871,2.9410871 0 0 1 2.941125,2.941126 2.9410871,2.9410871 0 0 1 -2.941125,2.941125 2.9410871,2.9410871 0 0 1 -2.941125,-2.941125 2.9410871,2.9410871 0 0 1 2.941125,-2.941126 z" />
  </g>
</svg>
