<?xml version="1.0" standalone="no"?>
<!DOCTYPE svg PUBLIC "-//W3C//DTD SVG 20010904//EN"
 "http://www.w3.org/TR/2001/REC-SVG-20010904/DTD/svg10.dtd">
<svg version="1.0" xmlns="http://www.w3.org/2000/svg"
 width="700.000000pt" height="700.000000pt" viewBox="0 0 700.000000 700.000000"
 preserveAspectRatio="xMidYMid meet">
<metadata>
Created by potrace 1.11, written by Peter Selinger 2001-2013
</metadata>
<g transform="translate(0.000000,700.000000) scale(0.100000,-0.100000)"
fill="#000000" stroke="none">
<path d="M100 6109 l0 -217 1048 1 1047 2 0 216 1 216 -1048 -1 -1048 0 0
-217z"/>
<path d="M4779 6326 c-4 -2 -5 -412 -2 -423 3 -8 269 -11 1049 -11 l1044 0 0
217 0 217 -1045 0 c-575 0 -1046 0 -1046 0z"/>
<path d="M100 4588 l0 -218 3385 0 3385 0 0 218 0 218 -3385 0 -3385 0 0 -218z"/>
<path d="M97 3825 c-2 -5 -3 -102 -3 -215 l1 -205 884 -2 c486 -1 885 -3 887
-5 1 -2 -396 -256 -884 -564 l-887 -560 -1 -256 -2 -257 37 23 c20 13 130 83
246 156 116 72 226 142 245 155 19 13 154 98 300 190 146 93 288 183 315 200
28 18 180 114 338 214 158 100 357 226 441 279 84 53 160 102 169 107 9 6 155
98 323 205 306 194 364 231 679 429 91 58 165 107 165 110 0 11 -3250 7 -3253
-4z"/>
<path d="M3615 3829 c-2 -3 10 -14 28 -24 18 -10 61 -37 97 -60 113 -73 454
-290 472 -300 16 -9 432 -272 679 -429 52 -34 103 -65 112 -71 17 -10 737
-467 819 -520 26 -16 80 -51 120 -76 40 -25 217 -137 393 -249 176 -111 330
-208 342 -216 12 -8 60 -39 107 -69 l86 -55 0 257 -1 258 -666 420 c-1075 678
-1118 705 -1102 705 8 1 409 1 892 1 l877 1 0 214 c0 164 -3 214 -12 215 -51
4 -3241 3 -3243 -2z"/>
<path d="M3270 1400 l0 -875 216 0 215 0 0 869 c0 477 -2 871 -6 874 -3 3
-100 6 -215 6 l-210 1 0 -875z"/>
</g>
</svg>
